<svg xmlns="http://www.w3.org/2000/svg" xmlns:xlink="http://www.w3.org/1999/xlink" width="500" zoomAndPan="magnify" viewBox="0 0 375 187.499995" height="250" preserveAspectRatio="xMidYMid meet" version="1.0"><defs><g/></defs><g fill="#ff3131" fill-opacity="1"><g transform="translate(0.51227, 156.88078)"><g><path d="M 9.484375 -130.46875 L 57.09375 -130.46875 C 70.375 -130.46875 81.125 -127.039062 89.34375 -120.1875 C 97.570312 -113.332031 101.6875 -103.367188 101.6875 -90.296875 C 101.6875 -77.222656 97.519531 -66.96875 89.1875 -59.53125 C 80.863281 -52.101562 70.164062 -48.390625 57.09375 -48.390625 L 39.21875 -48.390625 L 39.21875 0 L 9.484375 0 Z M 39.21875 -72.109375 L 47.59375 -72.109375 C 54.238281 -72.109375 59.695312 -73.453125 63.96875 -76.140625 C 68.238281 -78.828125 70.375 -83.226562 70.375 -89.34375 C 70.375 -95.570312 68.238281 -100.03125 63.96875 -102.71875 C 59.695312 -105.40625 54.238281 -106.75 47.59375 -106.75 L 39.21875 -106.75 Z M 39.21875 -72.109375 "/></g></g></g><g fill="#ff3131" fill-opacity="1"><g transform="translate(105.825086, 156.88078)"><g><path d="M 78.90625 -26.890625 C 83.445312 -26.890625 87.847656 -27.570312 92.109375 -28.9375 C 96.378906 -30.3125 99.519531 -31.628906 101.53125 -32.890625 L 104.53125 -34.953125 L 117.1875 -9.640625 C 116.757812 -9.328125 116.175781 -8.90625 115.4375 -8.375 C 114.695312 -7.851562 112.984375 -6.878906 110.296875 -5.453125 C 107.609375 -4.035156 104.734375 -2.796875 101.671875 -1.734375 C 98.617188 -0.679688 94.613281 0.265625 89.65625 1.109375 C 84.707031 1.953125 79.597656 2.375 74.328125 2.375 C 62.203125 2.375 50.707031 -0.601562 39.84375 -6.5625 C 28.988281 -12.519531 20.238281 -20.71875 13.59375 -31.15625 C 6.957031 -41.59375 3.640625 -52.875 3.640625 -65 C 3.640625 -74.164062 5.585938 -82.96875 9.484375 -91.40625 C 13.390625 -99.84375 18.582031 -107.0625 25.0625 -113.0625 C 31.550781 -119.070312 39.113281 -123.867188 47.75 -127.453125 C 56.394531 -131.046875 65.253906 -132.84375 74.328125 -132.84375 C 82.765625 -132.84375 90.539062 -131.835938 97.65625 -129.828125 C 104.769531 -127.828125 109.800781 -125.828125 112.75 -123.828125 L 117.1875 -120.8125 L 104.53125 -95.515625 C 103.789062 -96.148438 102.679688 -96.914062 101.203125 -97.8125 C 99.734375 -98.707031 96.785156 -99.890625 92.359375 -101.359375 C 87.929688 -102.835938 83.445312 -103.578125 78.90625 -103.578125 C 71.738281 -103.578125 65.304688 -102.414062 59.609375 -100.09375 C 53.921875 -97.78125 49.414062 -94.722656 46.09375 -90.921875 C 42.769531 -87.128906 40.238281 -83.046875 38.5 -78.671875 C 36.757812 -74.296875 35.890625 -69.84375 35.890625 -65.3125 C 35.890625 -55.40625 39.609375 -46.523438 47.046875 -38.671875 C 54.484375 -30.816406 65.101562 -26.890625 78.90625 -26.890625 Z M 78.90625 -26.890625 "/></g></g></g><g fill="#ff3131" fill-opacity="1"><g transform="translate(224.894984, 156.88078)"><g><path d="M 117.34375 0 L 111.171875 -77.328125 L 110.375 -77.328125 L 83.65625 -0.796875 L 65.9375 -0.796875 L 39.21875 -77.328125 L 38.421875 -77.328125 L 32.265625 0 L 2.53125 0 L 14.234375 -130.46875 L 45.859375 -130.46875 L 74.796875 -55.1875 L 103.734375 -130.46875 L 135.375 -130.46875 L 147.078125 0 Z M 117.34375 0 "/></g></g></g></svg>