<svg xmlns="http://www.w3.org/2000/svg" xmlns:xlink="http://www.w3.org/1999/xlink" width="750" zoomAndPan="magnify" viewBox="0 0 562.5 187.499995" height="250" preserveAspectRatio="xMidYMid meet" version="1.0"><defs><g/></defs><g fill="#ce3f3f" fill-opacity="1"><g transform="translate(10.977187, 131.844822)"><g><path d="M 27.984375 -16.65625 L 52.296875 -16.65625 L 52.296875 0 L 6.21875 0 L 6.21875 -78.28125 L 27.984375 -78.28125 Z M 27.984375 -16.65625 "/></g></g></g><g fill="#ce3f3f" fill-opacity="1"><g transform="translate(65.48814, 131.844822)"><g><path d="M 65.734375 -31.859375 C 65.734375 -30.160156 65.617188 -28.460938 65.390625 -26.765625 L 24.203125 -26.765625 C 24.421875 -23.359375 25.363281 -20.820312 27.03125 -19.15625 C 28.695312 -17.488281 30.828125 -16.65625 33.421875 -16.65625 C 37.046875 -16.65625 39.632812 -18.285156 41.1875 -21.546875 L 64.390625 -21.546875 C 63.429688 -17.242188 61.5625 -13.410156 58.78125 -10.046875 C 56.007812 -6.679688 52.515625 -4.035156 48.296875 -2.109375 C 44.078125 -0.179688 39.414062 0.78125 34.3125 0.78125 C 28.164062 0.78125 22.703125 -0.515625 17.921875 -3.109375 C 13.148438 -5.703125 9.414062 -9.398438 6.71875 -14.203125 C 4.019531 -19.015625 2.671875 -24.679688 2.671875 -31.203125 C 2.671875 -37.710938 4 -43.351562 6.65625 -48.125 C 9.320312 -52.90625 13.039062 -56.585938 17.8125 -59.171875 C 22.59375 -61.765625 28.09375 -63.0625 34.3125 -63.0625 C 40.457031 -63.0625 45.894531 -61.800781 50.625 -59.28125 C 55.363281 -56.769531 59.066406 -53.164062 61.734375 -48.46875 C 64.398438 -43.769531 65.734375 -38.234375 65.734375 -31.859375 Z M 43.53125 -37.3125 C 43.53125 -39.96875 42.640625 -42.054688 40.859375 -43.578125 C 39.078125 -45.097656 36.859375 -45.859375 34.203125 -45.859375 C 31.535156 -45.859375 29.347656 -45.132812 27.640625 -43.6875 C 25.941406 -42.25 24.832031 -40.125 24.3125 -37.3125 Z M 43.53125 -37.3125 "/></g></g></g><g fill="#ce3f3f" fill-opacity="1"><g transform="translate(133.876624, 131.844822)"><g><path d="M 2.671875 -31.203125 C 2.671875 -37.640625 3.832031 -43.265625 6.15625 -48.078125 C 8.488281 -52.890625 11.671875 -56.585938 15.703125 -59.171875 C 19.742188 -61.765625 24.242188 -63.0625 29.203125 -63.0625 C 33.492188 -63.0625 37.191406 -62.207031 40.296875 -60.5 C 43.410156 -58.800781 45.816406 -56.507812 47.515625 -53.625 L 47.515625 -62.28125 L 69.28125 -62.28125 L 69.28125 0 L 47.515625 0 L 47.515625 -8.65625 C 45.816406 -5.769531 43.394531 -3.472656 40.25 -1.765625 C 37.101562 -0.0664062 33.421875 0.78125 29.203125 0.78125 C 24.242188 0.78125 19.742188 -0.515625 15.703125 -3.109375 C 11.671875 -5.703125 8.488281 -9.421875 6.15625 -14.265625 C 3.832031 -19.117188 2.671875 -24.765625 2.671875 -31.203125 Z M 47.515625 -31.203125 C 47.515625 -35.203125 46.421875 -38.347656 44.234375 -40.640625 C 42.054688 -42.929688 39.378906 -44.078125 36.203125 -44.078125 C 32.941406 -44.078125 30.238281 -42.945312 28.09375 -40.6875 C 25.945312 -38.4375 24.875 -35.273438 24.875 -31.203125 C 24.875 -27.203125 25.945312 -24.035156 28.09375 -21.703125 C 30.238281 -19.367188 32.941406 -18.203125 36.203125 -18.203125 C 39.378906 -18.203125 42.054688 -19.347656 44.234375 -21.640625 C 46.421875 -23.941406 47.515625 -27.128906 47.515625 -31.203125 Z M 47.515625 -31.203125 "/></g></g></g><g fill="#ce3f3f" fill-opacity="1"><g transform="translate(209.370405, 131.844822)"><g><path d="M 2.671875 -31.203125 C 2.671875 -37.640625 3.832031 -43.265625 6.15625 -48.078125 C 8.488281 -52.890625 11.691406 -56.585938 15.765625 -59.171875 C 19.835938 -61.765625 24.351562 -63.0625 29.3125 -63.0625 C 33.3125 -63.0625 36.882812 -62.226562 40.03125 -60.5625 C 43.175781 -58.894531 45.632812 -56.617188 47.40625 -53.734375 L 47.40625 -82.15625 L 69.28125 -82.15625 L 69.28125 0 L 47.40625 0 L 47.40625 -8.65625 C 45.707031 -5.769531 43.300781 -3.472656 40.1875 -1.765625 C 37.082031 -0.0664062 33.421875 0.78125 29.203125 0.78125 C 24.242188 0.78125 19.742188 -0.515625 15.703125 -3.109375 C 11.671875 -5.703125 8.488281 -9.421875 6.15625 -14.265625 C 3.832031 -19.117188 2.671875 -24.765625 2.671875 -31.203125 Z M 47.515625 -31.203125 C 47.515625 -35.203125 46.421875 -38.347656 44.234375 -40.640625 C 42.054688 -42.929688 39.378906 -44.078125 36.203125 -44.078125 C 32.941406 -44.078125 30.238281 -42.945312 28.09375 -40.6875 C 25.945312 -38.4375 24.875 -35.273438 24.875 -31.203125 C 24.875 -27.203125 25.945312 -24.035156 28.09375 -21.703125 C 30.238281 -19.367188 32.941406 -18.203125 36.203125 -18.203125 C 39.378906 -18.203125 42.054688 -19.347656 44.234375 -21.640625 C 46.421875 -23.941406 47.515625 -27.128906 47.515625 -31.203125 Z M 47.515625 -31.203125 "/></g></g></g><g fill="#374151" fill-opacity="1"><g transform="translate(284.875678, 131.844822)"><g><path d="M 33.09375 0.78125 C 27.976562 0.78125 23.40625 -0.125 19.375 -1.9375 C 15.34375 -3.75 12.175781 -6.265625 9.875 -9.484375 C 7.582031 -12.710938 6.398438 -16.4375 6.328125 -20.65625 L 17.09375 -20.65625 C 17.46875 -17.03125 18.96875 -13.972656 21.59375 -11.484375 C 24.21875 -9.003906 28.050781 -7.765625 33.09375 -7.765625 C 37.894531 -7.765625 41.679688 -8.96875 44.453125 -11.375 C 47.234375 -13.78125 48.625 -16.875 48.625 -20.65625 C 48.625 -23.613281 47.8125 -26.015625 46.1875 -27.859375 C 44.5625 -29.710938 42.523438 -31.117188 40.078125 -32.078125 C 37.640625 -33.046875 34.347656 -34.085938 30.203125 -35.203125 C 25.097656 -36.535156 21.007812 -37.863281 17.9375 -39.1875 C 14.863281 -40.519531 12.234375 -42.609375 10.046875 -45.453125 C 7.859375 -48.304688 6.765625 -52.140625 6.765625 -56.953125 C 6.765625 -61.171875 7.835938 -64.910156 9.984375 -68.171875 C 12.140625 -71.429688 15.160156 -73.945312 19.046875 -75.71875 C 22.929688 -77.5 27.390625 -78.390625 32.421875 -78.390625 C 39.671875 -78.390625 45.609375 -76.570312 50.234375 -72.9375 C 54.867188 -69.3125 57.476562 -64.503906 58.0625 -58.515625 L 46.96875 -58.515625 C 46.59375 -61.472656 45.035156 -64.082031 42.296875 -66.34375 C 39.554688 -68.601562 35.929688 -69.734375 31.421875 -69.734375 C 27.203125 -69.734375 23.757812 -68.640625 21.09375 -66.453125 C 18.425781 -64.265625 17.09375 -61.210938 17.09375 -57.296875 C 17.09375 -54.484375 17.890625 -52.1875 19.484375 -50.40625 C 21.078125 -48.632812 23.039062 -47.285156 25.375 -46.359375 C 27.707031 -45.429688 30.984375 -44.375 35.203125 -43.1875 C 40.304688 -41.78125 44.410156 -40.390625 47.515625 -39.015625 C 50.628906 -37.648438 53.296875 -35.539062 55.515625 -32.6875 C 57.734375 -29.84375 58.84375 -25.976562 58.84375 -21.09375 C 58.84375 -17.320312 57.84375 -13.769531 55.84375 -10.4375 C 53.84375 -7.101562 50.878906 -4.398438 46.953125 -2.328125 C 43.035156 -0.253906 38.414062 0.78125 33.09375 0.78125 Z M 33.09375 0.78125 "/></g></g></g><g fill="#374151" fill-opacity="1"><g transform="translate(350.044576, 131.844822)"><g><path d="M 60.953125 -60.84375 L 24.3125 28.640625 L 13.875 28.640625 L 25.875 -0.671875 L 1.328125 -60.84375 L 12.546875 -60.84375 L 31.640625 -11.546875 L 50.515625 -60.84375 Z M 60.953125 -60.84375 "/></g></g></g><g fill="#374151" fill-opacity="1"><g transform="translate(412.548978, 131.844822)"><g><path d="M 38.1875 -61.953125 C 45.59375 -61.953125 51.585938 -59.710938 56.171875 -55.234375 C 60.765625 -50.753906 63.0625 -44.296875 63.0625 -35.859375 L 63.0625 0 L 53.078125 0 L 53.078125 -34.421875 C 53.078125 -40.492188 51.554688 -45.140625 48.515625 -48.359375 C 45.484375 -51.578125 41.335938 -53.1875 36.078125 -53.1875 C 30.753906 -53.1875 26.519531 -51.519531 23.375 -48.1875 C 20.226562 -44.851562 18.65625 -40.003906 18.65625 -33.640625 L 18.65625 0 L 8.546875 0 L 8.546875 -60.84375 L 18.65625 -60.84375 L 18.65625 -52.1875 C 20.65625 -55.289062 23.375 -57.691406 26.8125 -59.390625 C 30.257812 -61.097656 34.050781 -61.953125 38.1875 -61.953125 Z M 38.1875 -61.953125 "/></g></g></g><g fill="#374151" fill-opacity="1"><g transform="translate(483.601945, 131.844822)"><g><path d="M 4.78125 -30.53125 C 4.78125 -36.820312 6.035156 -42.316406 8.546875 -47.015625 C 11.066406 -51.722656 14.566406 -55.367188 19.046875 -57.953125 C 23.523438 -60.546875 28.648438 -61.84375 34.421875 -61.84375 C 41.898438 -61.84375 48.0625 -60.03125 52.90625 -56.40625 C 57.75 -52.78125 60.953125 -47.742188 62.515625 -41.296875 L 51.625 -41.296875 C 50.59375 -45.003906 48.578125 -47.929688 45.578125 -50.078125 C 42.578125 -52.222656 38.859375 -53.296875 34.421875 -53.296875 C 28.648438 -53.296875 23.984375 -51.316406 20.421875 -47.359375 C 16.867188 -43.398438 15.09375 -37.789062 15.09375 -30.53125 C 15.09375 -23.207031 16.867188 -17.546875 20.421875 -13.546875 C 23.984375 -9.546875 28.648438 -7.546875 34.421875 -7.546875 C 38.859375 -7.546875 42.554688 -8.582031 45.515625 -10.65625 C 48.484375 -12.726562 50.519531 -15.691406 51.625 -19.546875 L 62.515625 -19.546875 C 60.878906 -13.328125 57.617188 -8.347656 52.734375 -4.609375 C 47.847656 -0.867188 41.742188 1 34.421875 1 C 28.648438 1 23.523438 -0.289062 19.046875 -2.875 C 14.566406 -5.46875 11.066406 -9.132812 8.546875 -13.875 C 6.035156 -18.613281 4.78125 -24.164062 4.78125 -30.53125 Z M 4.78125 -30.53125 "/></g></g></g><g fill="#000000" fill-opacity="1"><g transform="translate(494.831447, 62.532162)"><g><path d="M 2.96875 -2.5 C 3.144531 -2.46875 3.304688 -2.394531 3.453125 -2.28125 C 3.597656 -2.164062 3.710938 -2.019531 3.796875 -1.84375 C 3.890625 -1.675781 3.9375 -1.492188 3.9375 -1.296875 C 3.9375 -1.054688 3.867188 -0.835938 3.734375 -0.640625 C 3.609375 -0.441406 3.425781 -0.285156 3.1875 -0.171875 C 2.957031 -0.0546875 2.675781 0 2.34375 0 L 0.53125 0 L 0.53125 -4.859375 L 2.28125 -4.859375 C 2.613281 -4.859375 2.894531 -4.800781 3.125 -4.6875 C 3.351562 -4.582031 3.523438 -4.4375 3.640625 -4.25 C 3.753906 -4.0625 3.8125 -3.851562 3.8125 -3.625 C 3.8125 -3.332031 3.734375 -3.09375 3.578125 -2.90625 C 3.429688 -2.71875 3.226562 -2.582031 2.96875 -2.5 Z M 1.171875 -2.765625 L 2.234375 -2.765625 C 2.535156 -2.765625 2.765625 -2.832031 2.921875 -2.96875 C 3.085938 -3.101562 3.171875 -3.296875 3.171875 -3.546875 C 3.171875 -3.796875 3.085938 -3.988281 2.921875 -4.125 C 2.765625 -4.257812 2.53125 -4.328125 2.21875 -4.328125 L 1.171875 -4.328125 Z M 2.296875 -0.515625 C 2.609375 -0.515625 2.851562 -0.585938 3.03125 -0.734375 C 3.207031 -0.890625 3.296875 -1.097656 3.296875 -1.359375 C 3.296875 -1.628906 3.203125 -1.84375 3.015625 -2 C 2.828125 -2.15625 2.578125 -2.234375 2.265625 -2.234375 L 1.171875 -2.234375 L 1.171875 -0.515625 Z M 2.296875 -0.515625 "/></g></g></g><g fill="#000000" fill-opacity="1"><g transform="translate(499.10066, 62.532162)"><g><path d="M 3.828125 -3.8125 L 1.53125 1.796875 L 0.875 1.796875 L 1.625 -0.046875 L 0.078125 -3.8125 L 0.78125 -3.8125 L 1.984375 -0.71875 L 3.171875 -3.8125 Z M 3.828125 -3.8125 "/></g></g></g><g fill="#000000" fill-opacity="1"><g transform="translate(503.021649, 62.532162)"><g/></g></g><g fill="#000000" fill-opacity="1"><g transform="translate(504.881162, 62.532162)"><g><path d="M 3.53125 -4.859375 L 3.53125 -4.34375 L 2.203125 -4.34375 L 2.203125 0 L 1.5625 0 L 1.5625 -4.34375 L 0.234375 -4.34375 L 0.234375 -4.859375 Z M 3.53125 -4.859375 "/></g></g></g><g fill="#000000" fill-opacity="1"><g transform="translate(508.648939, 62.532162)"><g><path d="M 4.015625 -2.0625 C 4.015625 -1.9375 4.007812 -1.804688 4 -1.671875 L 0.953125 -1.671875 C 0.972656 -1.296875 1.097656 -1 1.328125 -0.78125 C 1.566406 -0.570312 1.851562 -0.46875 2.1875 -0.46875 C 2.457031 -0.46875 2.6875 -0.53125 2.875 -0.65625 C 3.0625 -0.789062 3.191406 -0.960938 3.265625 -1.171875 L 3.9375 -1.171875 C 3.84375 -0.804688 3.640625 -0.507812 3.328125 -0.28125 C 3.023438 -0.0507812 2.644531 0.0625 2.1875 0.0625 C 1.820312 0.0625 1.492188 -0.015625 1.203125 -0.171875 C 0.921875 -0.335938 0.695312 -0.570312 0.53125 -0.875 C 0.375 -1.175781 0.296875 -1.523438 0.296875 -1.921875 C 0.296875 -2.316406 0.375 -2.660156 0.53125 -2.953125 C 0.695312 -3.253906 0.921875 -3.484375 1.203125 -3.640625 C 1.484375 -3.796875 1.8125 -3.875 2.1875 -3.875 C 2.550781 -3.875 2.867188 -3.796875 3.140625 -3.640625 C 3.421875 -3.484375 3.632812 -3.265625 3.78125 -2.984375 C 3.9375 -2.710938 4.015625 -2.40625 4.015625 -2.0625 Z M 3.359375 -2.1875 C 3.359375 -2.425781 3.304688 -2.632812 3.203125 -2.8125 C 3.097656 -2.988281 2.953125 -3.117188 2.765625 -3.203125 C 2.585938 -3.296875 2.382812 -3.34375 2.15625 -3.34375 C 1.832031 -3.34375 1.554688 -3.238281 1.328125 -3.03125 C 1.109375 -2.832031 0.984375 -2.550781 0.953125 -2.1875 Z M 3.359375 -2.1875 "/></g></g></g><g fill="#000000" fill-opacity="1"><g transform="translate(512.966902, 62.532162)"><g><path d="M 0.296875 -1.921875 C 0.296875 -2.316406 0.375 -2.660156 0.53125 -2.953125 C 0.695312 -3.242188 0.914062 -3.46875 1.1875 -3.625 C 1.46875 -3.789062 1.789062 -3.875 2.15625 -3.875 C 2.625 -3.875 3.007812 -3.757812 3.3125 -3.53125 C 3.625 -3.3125 3.828125 -3 3.921875 -2.59375 L 3.234375 -2.59375 C 3.171875 -2.820312 3.046875 -3.003906 2.859375 -3.140625 C 2.671875 -3.273438 2.4375 -3.34375 2.15625 -3.34375 C 1.789062 -3.34375 1.5 -3.21875 1.28125 -2.96875 C 1.0625 -2.71875 0.953125 -2.367188 0.953125 -1.921875 C 0.953125 -1.453125 1.0625 -1.09375 1.28125 -0.84375 C 1.5 -0.59375 1.789062 -0.46875 2.15625 -0.46875 C 2.4375 -0.46875 2.671875 -0.53125 2.859375 -0.65625 C 3.046875 -0.789062 3.171875 -0.976562 3.234375 -1.21875 L 3.921875 -1.21875 C 3.816406 -0.832031 3.609375 -0.519531 3.296875 -0.28125 C 2.992188 -0.0507812 2.613281 0.0625 2.15625 0.0625 C 1.789062 0.0625 1.46875 -0.015625 1.1875 -0.171875 C 0.914062 -0.335938 0.695312 -0.566406 0.53125 -0.859375 C 0.375 -1.160156 0.296875 -1.515625 0.296875 -1.921875 Z M 0.296875 -1.921875 "/></g></g></g><g fill="#000000" fill-opacity="1"><g transform="translate(517.194334, 62.532162)"><g><path d="M 2.390625 -3.890625 C 2.859375 -3.890625 3.234375 -3.75 3.515625 -3.46875 C 3.804688 -3.1875 3.953125 -2.78125 3.953125 -2.25 L 3.953125 0 L 3.328125 0 L 3.328125 -2.15625 C 3.328125 -2.539062 3.234375 -2.832031 3.046875 -3.03125 C 2.859375 -3.238281 2.597656 -3.34375 2.265625 -3.34375 C 1.929688 -3.34375 1.664062 -3.234375 1.46875 -3.015625 C 1.269531 -2.804688 1.171875 -2.503906 1.171875 -2.109375 L 1.171875 0 L 0.53125 0 L 0.53125 -3.8125 L 1.171875 -3.8125 L 1.171875 -3.28125 C 1.296875 -3.46875 1.460938 -3.613281 1.671875 -3.71875 C 1.890625 -3.832031 2.128906 -3.890625 2.390625 -3.890625 Z M 2.390625 -3.890625 "/></g></g></g><g fill="#000000" fill-opacity="1"><g transform="translate(521.65159, 62.532162)"><g><path d="M 2.203125 0.0625 C 1.847656 0.0625 1.523438 -0.015625 1.234375 -0.171875 C 0.941406 -0.335938 0.710938 -0.570312 0.546875 -0.875 C 0.378906 -1.175781 0.296875 -1.523438 0.296875 -1.921875 C 0.296875 -2.304688 0.378906 -2.648438 0.546875 -2.953125 C 0.722656 -3.253906 0.957031 -3.484375 1.25 -3.640625 C 1.539062 -3.796875 1.867188 -3.875 2.234375 -3.875 C 2.597656 -3.875 2.925781 -3.796875 3.21875 -3.640625 C 3.507812 -3.484375 3.738281 -3.253906 3.90625 -2.953125 C 4.070312 -2.660156 4.15625 -2.316406 4.15625 -1.921875 C 4.15625 -1.523438 4.066406 -1.175781 3.890625 -0.875 C 3.722656 -0.570312 3.488281 -0.335938 3.1875 -0.171875 C 2.894531 -0.015625 2.566406 0.0625 2.203125 0.0625 Z M 2.203125 -0.5 C 2.429688 -0.5 2.644531 -0.550781 2.84375 -0.65625 C 3.039062 -0.757812 3.203125 -0.914062 3.328125 -1.125 C 3.453125 -1.34375 3.515625 -1.609375 3.515625 -1.921875 C 3.515625 -2.222656 3.453125 -2.476562 3.328125 -2.6875 C 3.210938 -2.90625 3.054688 -3.066406 2.859375 -3.171875 C 2.660156 -3.273438 2.445312 -3.328125 2.21875 -3.328125 C 1.988281 -3.328125 1.773438 -3.273438 1.578125 -3.171875 C 1.390625 -3.066406 1.238281 -2.90625 1.125 -2.6875 C 1.007812 -2.476562 0.953125 -2.222656 0.953125 -1.921875 C 0.953125 -1.609375 1.007812 -1.34375 1.125 -1.125 C 1.238281 -0.914062 1.390625 -0.757812 1.578125 -0.65625 C 1.765625 -0.550781 1.972656 -0.5 2.203125 -0.5 Z M 2.203125 -0.5 "/></g></g></g><g fill="#000000" fill-opacity="1"><g transform="translate(526.108845, 62.532162)"><g><path d="M 2.078125 0.046875 C 1.753906 0.046875 1.46875 -0.0078125 1.21875 -0.125 C 0.96875 -0.238281 0.769531 -0.394531 0.625 -0.59375 C 0.476562 -0.800781 0.398438 -1.035156 0.390625 -1.296875 L 1.078125 -1.296875 C 1.097656 -1.066406 1.191406 -0.875 1.359375 -0.71875 C 1.523438 -0.5625 1.765625 -0.484375 2.078125 -0.484375 C 2.378906 -0.484375 2.613281 -0.554688 2.78125 -0.703125 C 2.957031 -0.859375 3.046875 -1.054688 3.046875 -1.296875 C 3.046875 -1.484375 2.992188 -1.632812 2.890625 -1.75 C 2.796875 -1.863281 2.671875 -1.953125 2.515625 -2.015625 C 2.359375 -2.078125 2.148438 -2.140625 1.890625 -2.203125 C 1.578125 -2.285156 1.320312 -2.367188 1.125 -2.453125 C 0.9375 -2.535156 0.769531 -2.664062 0.625 -2.84375 C 0.488281 -3.03125 0.421875 -3.273438 0.421875 -3.578125 C 0.421875 -3.835938 0.488281 -4.066406 0.625 -4.265625 C 0.757812 -4.472656 0.945312 -4.632812 1.1875 -4.75 C 1.4375 -4.863281 1.71875 -4.921875 2.03125 -4.921875 C 2.488281 -4.921875 2.863281 -4.804688 3.15625 -4.578125 C 3.445312 -4.347656 3.609375 -4.046875 3.640625 -3.671875 L 2.953125 -3.671875 C 2.921875 -3.859375 2.816406 -4.019531 2.640625 -4.15625 C 2.472656 -4.300781 2.25 -4.375 1.96875 -4.375 C 1.707031 -4.375 1.492188 -4.304688 1.328125 -4.171875 C 1.160156 -4.035156 1.078125 -3.84375 1.078125 -3.59375 C 1.078125 -3.414062 1.125 -3.269531 1.21875 -3.15625 C 1.320312 -3.050781 1.445312 -2.96875 1.59375 -2.90625 C 1.738281 -2.851562 1.941406 -2.785156 2.203125 -2.703125 C 2.523438 -2.617188 2.785156 -2.535156 2.984375 -2.453125 C 3.179688 -2.367188 3.347656 -2.234375 3.484375 -2.046875 C 3.617188 -1.867188 3.6875 -1.628906 3.6875 -1.328125 C 3.6875 -1.085938 3.625 -0.863281 3.5 -0.65625 C 3.375 -0.445312 3.1875 -0.273438 2.9375 -0.140625 C 2.695312 -0.015625 2.410156 0.046875 2.078125 0.046875 Z M 2.078125 0.046875 "/></g></g></g><g fill="#000000" fill-opacity="1"><g transform="translate(530.196986, 62.532162)"><g><path d="M 3.828125 -3.8125 L 1.53125 1.796875 L 0.875 1.796875 L 1.625 -0.046875 L 0.078125 -3.8125 L 0.78125 -3.8125 L 1.984375 -0.71875 L 3.171875 -3.8125 Z M 3.828125 -3.8125 "/></g></g></g><g fill="#000000" fill-opacity="1"><g transform="translate(534.117975, 62.532162)"><g><path d="M 2.390625 -3.890625 C 2.859375 -3.890625 3.234375 -3.75 3.515625 -3.46875 C 3.804688 -3.1875 3.953125 -2.78125 3.953125 -2.25 L 3.953125 0 L 3.328125 0 L 3.328125 -2.15625 C 3.328125 -2.539062 3.234375 -2.832031 3.046875 -3.03125 C 2.859375 -3.238281 2.597656 -3.34375 2.265625 -3.34375 C 1.929688 -3.34375 1.664062 -3.234375 1.46875 -3.015625 C 1.269531 -2.804688 1.171875 -2.503906 1.171875 -2.109375 L 1.171875 0 L 0.53125 0 L 0.53125 -3.8125 L 1.171875 -3.8125 L 1.171875 -3.28125 C 1.296875 -3.46875 1.460938 -3.613281 1.671875 -3.71875 C 1.890625 -3.832031 2.128906 -3.890625 2.390625 -3.890625 Z M 2.390625 -3.890625 "/></g></g></g><g fill="#000000" fill-opacity="1"><g transform="translate(538.57523, 62.532162)"><g><path d="M 0.296875 -1.921875 C 0.296875 -2.316406 0.375 -2.660156 0.53125 -2.953125 C 0.695312 -3.242188 0.914062 -3.46875 1.1875 -3.625 C 1.46875 -3.789062 1.789062 -3.875 2.15625 -3.875 C 2.625 -3.875 3.007812 -3.757812 3.3125 -3.53125 C 3.625 -3.3125 3.828125 -3 3.921875 -2.59375 L 3.234375 -2.59375 C 3.171875 -2.820312 3.046875 -3.003906 2.859375 -3.140625 C 2.671875 -3.273438 2.4375 -3.34375 2.15625 -3.34375 C 1.789062 -3.34375 1.5 -3.21875 1.28125 -2.96875 C 1.0625 -2.71875 0.953125 -2.367188 0.953125 -1.921875 C 0.953125 -1.453125 1.0625 -1.09375 1.28125 -0.84375 C 1.5 -0.59375 1.789062 -0.46875 2.15625 -0.46875 C 2.4375 -0.46875 2.671875 -0.53125 2.859375 -0.65625 C 3.046875 -0.789062 3.171875 -0.976562 3.234375 -1.21875 L 3.921875 -1.21875 C 3.816406 -0.832031 3.609375 -0.519531 3.296875 -0.28125 C 2.992188 -0.0507812 2.613281 0.0625 2.15625 0.0625 C 1.789062 0.0625 1.46875 -0.015625 1.1875 -0.171875 C 0.914062 -0.335938 0.695312 -0.566406 0.53125 -0.859375 C 0.375 -1.160156 0.296875 -1.515625 0.296875 -1.921875 Z M 0.296875 -1.921875 "/></g></g></g></svg>